<svg width="693" height="577" viewBox="0 0 693 577" fill="none" xmlns="http://www.w3.org/2000/svg">
<g clip-path="url(#clip0_2_2)">
<rect y="114" width="693" height="329" rx="20" fill="white"/>
<path d="M172.93 443.972H670.31C673.158 443.972 675.979 443.411 678.611 442.321C681.242 441.231 683.633 439.634 685.647 437.62C687.662 435.605 689.259 433.214 690.349 430.583C691.439 427.951 692 425.13 692 422.282V134.662C692.004 132.74 691.748 130.826 691.24 128.972C689.992 124.377 687.266 120.321 683.484 117.429C679.701 114.537 675.071 112.971 670.31 112.972H476.04C471.508 120.606 468.715 129.145 467.86 137.982C465.45 163.672 480.18 187.422 493.36 209.612C506.54 231.802 519.11 257.602 512.13 282.452C507.41 299.212 494.62 311.342 478.75 318.612C463.501 325.36 446.727 327.915 430.16 326.012C420.21 324.755 410.409 322.518 400.9 319.332C388.43 315.282 376.25 310.032 364.09 304.722C364.08 304.722 364.08 304.722 364.07 304.712C363.86 304.622 363.64 304.522 363.43 304.432C354.02 300.322 344.62 296.202 335.08 292.572C323.902 288.201 312.299 285.004 300.46 283.032C282.47 280.212 264.33 281.232 248.28 289.392C222.12 302.682 208.1 331.402 197.13 358.622C186.05 386.142 176.12 414.582 172.93 443.972Z" fill="#FF63F9"/>
<path d="M1 333.942V422.282C0.999846 425.13 1.56076 427.951 2.65073 430.583C3.7407 433.214 5.33838 435.605 7.35251 437.62C9.36664 439.634 11.7578 441.231 14.3894 442.321C17.021 443.411 19.8416 443.972 22.69 443.972H105.37C106.8 430.642 105.6 417.362 100.35 404.972C88.91 377.952 61.23 361.972 34.8401 349.142C23.75 343.752 12.47 338.552 1 333.942Z" fill="#63D6FF"/>
<path d="M87.647 423.572V423.572C87.647 429.325 89.9322 434.842 93.9998 438.909C98.0675 442.977 103.584 445.262 109.337 445.262H192.017C193.447 431.932 192.247 418.652 186.997 406.262C184.307 399.91 178.025 392.873 169.838 385.764C137.72 357.876 87.647 381.036 87.647 423.572Z" fill="#63D6FF"/>
<path d="M578 420.98V420.98C578 426.732 580.285 432.249 584.353 436.317C588.421 440.384 593.937 442.67 599.69 442.67H682.37C683.8 429.34 682.6 416.06 677.35 403.67C674.66 397.317 668.378 390.28 660.191 383.172C628.073 355.284 578 378.443 578 420.98Z" fill="#63D6FF"/>
<path d="M498 268.98V268.98C498 274.732 500.285 280.249 504.353 284.317C508.421 288.384 513.937 290.67 519.69 290.67H602.37C603.8 277.34 602.6 264.06 597.35 251.67C594.66 245.317 588.378 238.28 580.191 231.172C548.073 203.284 498 226.443 498 268.98Z" fill="#63D6FF"/>
<path d="M0 422.282V134.662C0.006818 128.646 2.39955 122.879 6.65326 118.625C10.907 114.372 16.6743 111.979 22.6899 111.972H670.31C676.326 111.979 682.093 114.372 686.347 118.625C690.6 122.879 692.993 128.646 693 134.662V422.282C692.993 428.297 690.601 434.065 686.347 438.319C682.093 442.572 676.326 444.965 670.31 444.972H22.6899C16.6742 444.965 10.9068 442.572 6.65311 438.319C2.39939 434.065 0.00671474 428.297 0 422.282V422.282ZM22.6899 113.972C17.2045 113.978 11.9455 116.16 8.06671 120.039C4.18792 123.918 2.00613 129.177 2 134.662V422.282C2.00603 427.767 4.18776 433.026 8.06656 436.905C11.9454 440.784 17.2044 442.966 22.6899 442.972H670.31C675.796 442.966 681.055 440.784 684.933 436.905C688.812 433.026 690.994 427.767 691 422.282V134.662C690.994 129.177 688.812 123.918 684.933 120.039C681.054 116.16 675.795 113.978 670.31 113.972H22.6899Z" fill="#3F3D56"/>
<path d="M214.31 443.262H243.72C248.75 426.326 256.01 408.373 262.64 392.013C275.36 360.645 291.61 327.548 321.94 312.231C334.89 305.691 349.01 303.137 363.43 303.276C383.35 303.465 403.83 308.812 422.58 315.899C430.25 318.791 437.85 321.972 445.42 325.222C473.94 337.477 502.15 350.825 532.82 354.433C571.63 358.995 617.26 341.631 627.86 304.23C635.95 275.595 621.38 245.867 606.1 220.294C590.82 194.72 573.74 167.357 576.53 137.748C576.54 137.649 576.55 137.54 576.57 137.44C577.62 126.805 583.97 119.162 592.84 114.262H554.22C553.71 141.883 569.69 166.264 584.07 190.337C599.35 215.9 613.92 245.639 605.83 274.273C595.23 311.665 507.457 267.834 468.647 263.262C457.687 261.98 475.097 266.542 464.647 263.262C448.257 258.124 446.44 305.254 430.49 298.336C420.56 294.023 410.62 289.739 400.55 285.932C396.38 284.352 392.12 282.871 387.81 281.499C387.8 281.499 387.8 281.499 387.79 281.489C358.85 272.325 327.2 268.757 300.46 282.006C300.28 282.096 300.09 282.185 299.91 282.275C269.58 297.581 253.33 330.679 240.61 362.047C230.1 387.978 219.49 415.91 214.31 443.262Z" fill="#3F3D56"/>
<path d="M214.63 237.11H23.338C21.7706 237.11 20.2673 237.733 19.159 238.841C18.0506 239.95 17.428 241.453 17.428 243.02C17.428 244.588 18.0506 246.091 19.159 247.199C20.2673 248.308 21.7706 248.93 23.338 248.93H214.63C216.197 248.93 217.7 248.308 218.809 247.199C219.917 246.091 220.54 244.588 220.54 243.02C220.54 241.453 219.917 239.95 218.809 238.841C217.7 237.733 216.197 237.11 214.63 237.11V237.11Z" fill="#3F3D56"/>
<path d="M82.7814 203.972H23.471C21.9036 203.972 20.4003 204.595 19.292 205.703C18.1836 206.811 17.561 208.315 17.561 209.882C17.561 211.45 18.1836 212.953 19.292 214.061C20.4003 215.169 21.9036 215.792 23.471 215.792H82.7814C84.3489 215.792 85.8521 215.169 86.9604 214.061C88.0688 212.953 88.6915 211.45 88.6915 209.882C88.6915 208.315 88.0688 206.811 86.9604 205.703C85.8521 204.595 84.3489 203.972 82.7814 203.972H82.7814Z" fill="#3F3D56"/>
<path d="M311.498 549.925L299.374 549.823L294.008 501.972L311.9 502.123L311.498 549.925Z" fill="#FFB6B6"/>
<path d="M272.665 569.203C272.655 570.64 273.214 572.023 274.222 573.048C275.229 574.073 276.602 574.657 278.039 574.671L302.143 574.872L306.362 566.319L307.912 574.916L317.007 574.998L314.71 544.336L311.546 544.126L298.64 543.236L294.476 542.957L294.403 551.633L275.041 564.766C274.315 565.258 273.72 565.919 273.306 566.692C272.893 567.465 272.673 568.326 272.665 569.203V569.203Z" fill="#2F2E41"/>
<path d="M434.498 549.925L422.374 549.823L417.008 501.972L434.9 502.123L434.498 549.925Z" fill="#FFB6B6"/>
<path d="M395.665 569.203C395.655 570.64 396.214 572.023 397.222 573.048C398.229 574.073 399.602 574.657 401.039 574.671L425.143 574.872L429.362 566.319L430.912 574.916L440.007 574.998L437.71 544.336L434.546 544.126L421.64 543.236L417.476 542.957L417.403 551.633L398.041 564.766C397.315 565.258 396.72 565.919 396.306 566.692C395.893 567.465 395.673 568.326 395.665 569.203Z" fill="#2F2E41"/>
<path d="M296.542 166.721L351.105 124.729C353.411 122.944 354.923 120.322 355.314 117.432C355.705 114.541 354.943 111.613 353.194 109.278C352.289 108.071 351.148 107.06 349.84 106.308C348.531 105.556 347.084 105.078 345.585 104.904C344.086 104.73 342.567 104.862 341.121 105.294C339.675 105.726 338.332 106.448 337.175 107.415L281.835 152.771L247.046 178.914C245.325 177.913 243.337 177.466 241.353 177.635C239.368 177.803 237.484 178.578 235.956 179.854C234.427 181.131 233.329 182.847 232.81 184.769C232.29 186.692 232.376 188.727 233.054 190.6C233.732 192.472 234.97 194.09 236.6 195.235C238.229 196.379 240.172 196.994 242.163 196.995C244.155 196.997 246.098 196.386 247.73 195.245C249.362 194.103 250.603 192.487 251.284 190.616L296.542 166.721Z" fill="#FFB6B6"/>
<path d="M341.013 176.374L338.608 230.088L420.294 239.972C413.866 218.389 403.326 188.41 408.156 173.389L341.013 176.374Z" fill="#A0616A"/>
<path d="M387.446 77.9005H362.284L351.478 96.3915L346.329 96.1072C336.294 99.9721 332.294 103.972 326.756 114.629L307.294 130.972L322.294 148.972C332.655 147.275 336.39 139.232 333.1 124.462C333.1 124.462 321.754 144.235 338.098 153.963C338.098 153.963 335.183 172.291 338.098 172.094C341.013 171.897 347.727 168.167 341.013 171.897C334.299 175.628 335.449 175.788 335.668 176.997C339.294 196.972 342.294 211.972 342.294 211.972L413.294 218.972C413.294 218.972 409.203 176.034 409.425 173.593C409.648 171.151 408.156 177.12 409.648 171.151C411.14 165.183 413.378 167.421 411.14 165.183C408.902 162.945 426.525 161.018 419.647 150.262L442.647 144.262L429.791 113.707C429.791 103.39 413.221 95.0266 402.904 95.0266H401.583L387.446 77.9005Z" fill="#E6E6E6"/>
<path d="M414.223 210.859C386.446 220.413 361.439 218.315 340.294 199.972C340.294 199.972 334.343 221.972 328.319 218.972C322.294 215.972 325.272 224.367 323.617 227.444C321.86 230.712 323.9 236.224 318.097 238.098C312.294 239.972 314.474 245.48 312.595 249.533C299.449 277.897 284.436 318.047 274.294 368.972C263.872 421.301 289.294 508.972 289.294 508.972L313.294 506.972L319.294 392.972L346.737 344.786C346.737 344.786 360.218 336.936 351.756 332.954C343.294 328.972 348.963 324.037 355.129 325.005C361.294 325.972 368.294 293.972 368.294 293.972C359.504 316.064 414.294 510.972 414.294 510.972L437.294 508.972L424.294 236.972L414.223 210.859Z" fill="#2F2E41"/>
<path d="M402.379 31.4783C405.107 38.2716 412.802 51.6309 413.844 58.9186L413.375 58.4573C412.48 59.986 411.463 61.4401 410.334 62.8051C408.311 60.6798 405.867 58.9993 403.158 57.8706C404.637 60.9057 405.494 64.2061 405.677 67.5774C400.668 71.9397 387.874 69.3078 381.482 71.6327C371.195 75.3648 360.274 76.6934 349.491 77.7968C345.663 78.1908 341.379 78.43 338.697 76.1684C336.015 73.9067 337.612 69.7184 336.169 66.5506C325.89 43.9861 335.376 35.8449 343.436 25.6133C345.209 23.3617 345.202 20.0016 347.36 17.8533C350.354 14.8755 354.944 13.9596 359.176 13.2259C358.077 13.2838 356.981 13.0578 355.994 12.5696C355.008 12.0813 354.163 11.3473 353.543 10.4382C352.998 9.52227 352.717 8.47372 352.731 7.40821C352.744 6.34271 353.052 5.30165 353.619 4.39983C355.133 1.89067 358.278 0.431566 361.312 0.0670556C364.301 -0.135932 367.304 0.122183 370.215 0.832345C372.1 1.08033 373.926 1.66392 375.606 2.5555C376.398 2.97836 377.043 3.63309 377.453 4.43215C377.864 5.23121 378.021 6.13652 377.903 7.02706C377.65 7.84943 377.215 8.60412 376.63 9.23483C376.044 9.86554 375.324 10.356 374.523 10.6696C373.302 11.1861 372.017 11.5378 370.702 11.7155C376.739 10.9322 382.871 12.0055 388.283 14.7927C395.066 18.4106 399.642 24.6886 402.379 31.4783Z" fill="#2F2E41"/>
<path d="M365.655 69.5641C379.045 69.5641 389.899 58.7096 389.899 45.32C389.899 31.9303 379.045 21.0759 365.655 21.0759C352.265 21.0759 341.411 31.9303 341.411 45.32C341.411 58.7096 352.265 69.5641 365.655 69.5641Z" fill="#FFB6B6"/>
<path d="M388.984 32.3207C387.578 36.5691 383.561 37.9381 379.848 38.7919C378.677 39.0648 377.499 39.319 376.311 39.5453C375.872 38.9969 375.405 38.4595 374.918 37.9515C372.895 35.8263 370.451 34.1458 367.742 33.0171C368.913 35.4145 369.692 37.9846 370.048 40.629C367.803 40.9546 365.546 41.2208 363.277 41.4274C361.356 41.8361 359.353 41.4915 357.679 40.4648C356.006 39.4381 354.791 37.8079 354.286 35.911C352.22 39.2895 349.777 42.4712 346.436 43.8133C344.526 44.4997 342.446 44.5561 340.501 43.9743C338.556 43.3925 336.849 42.2031 335.63 40.5803C333.629 38.1395 332.515 34.8604 331.713 31.6957C330.765 27.9335 330.239 23.5997 332.1 21.2127C333.591 19.2809 336.163 19.2462 338.537 19.4176C343.776 19.8194 348.959 20.7591 354.005 22.2219L354.432 23.1824C353.565 17.9725 355.446 12.9598 358.927 11.1771C361.274 9.9852 364.099 10.1851 366.843 10.4269C370.368 10.5841 373.851 11.2577 377.181 12.426C381 13.8953 384.272 16.5088 386.55 19.909C388.986 23.6075 390.196 28.6518 388.984 32.3207Z" fill="#2F2E41"/>
<path d="M354.422 9.66093C354.661 9.59031 354.041 9.68102 354.256 9.68678C354.149 9.68059 354.043 9.66574 353.939 9.64236C353.921 9.63881 353.68 9.56178 353.84 9.61836C353.48 9.51069 353.159 9.30108 352.915 9.01483C352.346 8.31058 351.899 7.51542 351.594 6.66273C351.208 5.53592 350.589 4.50332 349.776 3.63272C349.546 3.40107 349.264 3.22709 348.953 3.12486C348.643 3.02264 348.313 2.99506 347.989 3.04439C347.666 3.09371 347.359 3.21854 347.093 3.40874C346.828 3.59893 346.61 3.84912 346.459 4.13902C345.987 5.18348 346.418 6.47038 346.755 7.49621C347.103 8.56207 347.62 9.56488 348.287 10.466C349.404 11.9396 350.926 13.0562 352.668 13.6799C354.683 14.4118 356.88 14.4746 358.934 13.859C359.205 13.7464 359.438 13.5574 359.604 13.3149C359.77 13.0724 359.861 12.7869 359.868 12.4932C359.874 12.1995 359.795 11.9103 359.64 11.6608C359.485 11.4113 359.261 11.2123 358.995 11.088L355.569 9.68594C355.389 9.60661 355.195 9.56356 354.998 9.55926C354.801 9.55497 354.605 9.58951 354.422 9.6609C354.238 9.7323 354.07 9.83915 353.928 9.97537C353.786 10.1116 353.672 10.2745 353.592 10.4548C353.513 10.6351 353.47 10.8293 353.466 11.0262C353.461 11.2232 353.496 11.419 353.567 11.6026C353.639 11.7862 353.745 11.9539 353.882 12.0962C354.018 12.2385 354.181 12.3526 354.361 12.4319L357.786 13.8339L357.847 11.0629C357.419 11.1863 356.98 11.2615 356.536 11.2871C356.062 11.3346 355.584 11.3144 355.115 11.2272C354.667 11.1685 354.226 11.061 353.801 10.9068C353.529 10.8074 353.262 10.6942 353.001 10.5677C352.907 10.5217 352.813 10.4739 352.72 10.4244C352.726 10.428 352.328 10.1959 352.503 10.3049C352.06 10.0219 351.644 9.69808 351.261 9.33783C351.126 9.21008 351.001 9.07149 350.889 8.92346C350.694 8.68372 350.513 8.43281 350.347 8.17198C350.01 7.61964 349.742 7.02741 349.551 6.40898C349.464 6.14906 349.391 5.88479 349.331 5.61723C349.315 5.47037 349.288 5.3248 349.252 5.18155C349.124 4.84023 349.276 5.38086 349.129 5.52875L348.498 5.994C348.379 6.02933 348.255 6.03752 348.132 6.01796C348.01 5.9984 347.894 5.95159 347.792 5.88101C347.718 5.77575 347.734 5.79321 347.841 5.93339C347.967 6.09837 348.081 6.27112 348.184 6.45059C348.411 6.87311 348.615 7.30684 348.798 7.75012C349.174 8.69287 349.651 9.59269 350.219 10.4342C350.775 11.2855 351.586 11.9393 352.536 12.3025C353.486 12.6657 354.526 12.7198 355.509 12.457C355.878 12.3102 356.174 12.0244 356.334 11.6611C356.493 11.2979 356.504 10.8863 356.363 10.5153C356.213 10.1497 355.926 9.85652 355.564 9.69725C355.202 9.53798 354.793 9.52497 354.422 9.66093V9.66093Z" fill="#2F2E41"/>
<path d="M316.609 273.067C356.2 273.067 388.294 240.972 388.294 201.382C388.294 161.791 356.2 129.696 316.609 129.696C277.018 129.696 244.924 161.791 244.924 201.382C244.924 240.972 277.018 273.067 316.609 273.067Z" fill="white"/>
<path d="M316.609 274.067C302.233 274.067 288.18 269.804 276.227 261.817C264.274 253.83 254.958 242.479 249.457 229.197C243.955 215.916 242.516 201.301 245.321 187.202C248.125 173.102 255.048 160.151 265.213 149.986C275.378 139.821 288.329 132.898 302.429 130.093C316.528 127.289 331.143 128.728 344.424 134.229C357.706 139.731 369.057 149.047 377.044 161C385.031 172.953 389.294 187.006 389.294 201.381C389.272 220.652 381.608 239.127 367.981 252.754C354.355 266.38 335.88 274.045 316.609 274.067V274.067ZM316.609 130.697C302.629 130.697 288.963 134.842 277.338 142.609C265.714 150.376 256.654 161.416 251.305 174.332C245.955 187.248 244.555 201.46 247.282 215.172C250.01 228.883 256.742 241.478 266.627 251.364C276.513 261.249 289.108 267.981 302.819 270.709C316.531 273.436 330.743 272.036 343.659 266.686C356.575 261.336 367.615 252.276 375.382 240.652C383.149 229.028 387.294 215.361 387.294 201.381C387.273 182.641 379.819 164.674 366.567 151.423C353.316 138.172 335.349 130.718 316.609 130.697V130.697Z" fill="#3F3D56"/>
<path d="M306.83 238.69C305.592 238.69 304.371 238.402 303.264 237.848C302.157 237.294 301.194 236.49 300.451 235.5L280.894 209.424C280.266 208.586 279.809 207.633 279.549 206.618C279.289 205.604 279.232 204.548 279.38 203.512C279.528 202.475 279.879 201.478 280.412 200.577C280.946 199.676 281.652 198.889 282.49 198.261C283.327 197.632 284.281 197.175 285.295 196.915C286.309 196.656 287.365 196.598 288.401 196.746C289.438 196.894 290.435 197.245 291.336 197.779C292.237 198.312 293.025 199.018 293.653 199.856L306.447 216.914L339.309 167.622C339.89 166.751 340.637 166.003 341.507 165.42C342.377 164.837 343.353 164.432 344.38 164.226C345.407 164.021 346.464 164.02 347.491 164.223C348.519 164.426 349.496 164.83 350.367 165.411C351.238 165.992 351.987 166.738 352.57 167.608C353.152 168.479 353.558 169.455 353.763 170.482C353.969 171.509 353.97 172.566 353.766 173.593C353.563 174.62 353.16 175.598 352.579 176.469L313.465 235.139C312.758 236.2 311.806 237.076 310.69 237.694C309.574 238.311 308.326 238.652 307.052 238.688C306.978 238.689 306.904 238.69 306.83 238.69Z" fill="#63D6FF"/>
<path d="M237.648 575.708C237.647 575.865 237.678 576.02 237.737 576.164C237.797 576.309 237.885 576.44 237.995 576.551C238.106 576.662 238.237 576.749 238.382 576.809C238.527 576.868 238.681 576.899 238.838 576.898H492.128C492.444 576.898 492.746 576.773 492.969 576.55C493.192 576.327 493.318 576.024 493.318 575.708C493.318 575.393 493.192 575.09 492.969 574.867C492.746 574.644 492.444 574.518 492.128 574.518H238.838C238.681 574.518 238.527 574.548 238.382 574.608C238.237 574.668 238.106 574.755 237.995 574.866C237.885 574.977 237.797 575.108 237.737 575.252C237.678 575.397 237.647 575.552 237.648 575.708Z" fill="#CCCCCC"/>
<path d="M461.911 203.833L438.478 139.094C437.477 136.354 435.439 134.117 432.804 132.867C430.168 131.616 427.147 131.452 424.392 132.41V132.41C422.966 132.905 421.657 133.686 420.543 134.704C419.429 135.722 418.534 136.956 417.912 138.331C417.291 139.706 416.956 141.193 416.928 142.702C416.9 144.211 417.18 145.709 417.75 147.106L444.153 213.609L458.494 254.694C457.017 256.031 455.988 257.789 455.545 259.73C455.103 261.672 455.269 263.703 456.021 265.547C456.773 267.391 458.074 268.958 459.748 270.037C461.422 271.116 463.387 271.653 465.377 271.575C467.367 271.498 469.285 270.81 470.87 269.605C472.455 268.4 473.631 266.736 474.237 264.839C474.844 262.942 474.852 260.905 474.26 259.004C473.669 257.102 472.506 255.429 470.93 254.211L461.911 203.833Z" fill="#FFB6B6"/>
<path d="M426.647 110.262L445.647 144.262C445.647 144.262 401.86 159.254 401.753 156.758C401.647 154.262 403.929 119.624 403.929 119.624L426.647 110.262Z" fill="#E6E6E6"/>
</g>
<defs>
<clipPath id="clip0_2_2">
<rect width="693" height="576.898" fill="white"/>
</clipPath>
</defs>
</svg>
