<svg id="Layer_1" data-name="Layer 1" xmlns="http://www.w3.org/2000/svg" viewBox="0 0 1549.54 310.53"><defs><style>.cls-1{fill:#ff21b5;}.cls-2{fill:#1818b5;}.cls-3{fill:#19b6fe;}.cls-4{fill:#187222;}.cls-5{fill:#fe9e21;}.cls-6{fill:#fff;}</style></defs><path class="cls-1" d="M312.89,671.54A73.55,73.55,0,1,1,302,562.18v75.88A56.72,56.72,0,0,0,312.89,671.54Z" transform="translate(-185.23 -384.74)"/><path class="cls-2" d="M332.32,621.72a73.29,73.29,0,0,1-19.43,49.82A56.72,56.72,0,0,1,302,638.06V562.18A73.41,73.41,0,0,1,332.32,621.72Z" transform="translate(-185.23 -384.74)"/><path class="cls-3" d="M430.38,441.94v58.53a57,57,0,0,0-21,44.2v93.39a56.74,56.74,0,0,0,10.5,32.9,57.11,57.11,0,0,1-46.69,24.3h-14a57.11,57.11,0,0,1-46.28-23.72A73.58,73.58,0,0,0,302,562.18V441.94a57.36,57.36,0,0,1,57.2-57.2h14A57.36,57.36,0,0,1,430.38,441.94Z" transform="translate(-185.23 -384.74)"/><path class="cls-4" d="M430.38,500.47V638.06A56.67,56.67,0,0,1,419.87,671a56.74,56.74,0,0,1-10.5-32.9V544.67A57,57,0,0,1,430.38,500.47Z" transform="translate(-185.23 -384.74)"/><path class="cls-5" d="M537.78,544.67v93.39a57.36,57.36,0,0,1-57.2,57.2h-14a57.14,57.14,0,0,1-46.7-24.3,56.67,56.67,0,0,0,10.51-32.9V500.47a56.82,56.82,0,0,1,36.19-13h14A57.36,57.36,0,0,1,537.78,544.67Z" transform="translate(-185.23 -384.74)"/><path class="cls-6" d="M1170.68,490.55h27.51v13.28c.74,0,1.08.11,1.23,0,37.21-30.59,88.63-14.71,102,31.71,5.65,19.71,4.77,39.33-3.57,58.23-19,43.07-68.23,44.6-92.47,26.68-2.17-1.61-4.22-3.37-6.83-5.47v76.18h-27.83Zm28.84,69.16-1,.26c1.78,7.26,2.76,14.82,5.49,21.69,5.26,13.23,15.54,20.56,29.87,21.52,15.64,1,28.15-4.57,35.16-19,7.78-16,8-32.65-.06-48.69-10.71-21.44-39.38-26.32-56.77-9.81C1202.51,534.82,1199.79,546.89,1199.52,559.71Z" transform="translate(-185.23 -384.74)"/><path class="cls-6" d="M925.57,573.6H829.06c3.83,14.18,11.36,24.66,25.64,28.24,17.31,4.34,31.95-.15,42.44-15.68l25.1,12.14c-7.87,13.77-18.86,23.45-33.55,28.77-41.08,14.87-84.55-12-89.92-55.52-2.72-22,1.42-42.29,15.5-59.87,23.07-28.8,69.32-31.59,93.55-5.54,14.13,15.2,18.68,34,18.59,54.15C926.39,564.63,925.87,569,925.57,573.6Zm-28-26.47c-1.68-18.42-14.57-30.64-31.84-31.1-21-.57-34.21,14.27-36.84,31.1Z" transform="translate(-185.23 -384.74)"/><path class="cls-6" d="M1053.32,628.81h-26.7V613.19c-2,1.86-3.28,3.22-4.72,4.35-16.91,13.31-35.88,17.3-56.35,10.87-13.71-4.31-22.54-14.22-24.45-28.7-2.14-16.18,2.6-30.15,16.56-39.81,11.24-7.79,24.39-10.84,37.36-14.21,6.74-1.75,13.59-3.1,20.23-5.17,5-1.55,9.94-3.73,10.4-10.15s-2.59-11.27-9.22-14.54a32.72,32.72,0,0,0-44.25,16.35,3.86,3.86,0,0,1-3.12,1.91c-7.37-1.33-14.69-3-22.53-4.6a56.28,56.28,0,0,1,1.42-5.63c7.4-20.15,22.24-31.24,43-34.85a71.17,71.17,0,0,1,28.55.94c20.22,4.69,33.4,20.05,33.9,41.94.73,31.89.27,63.8.3,95.7A6,6,0,0,1,1053.32,628.81Zm-27.15-64.41a14,14,0,0,0-2,.23c-10.28,2.69-20.58,5.35-30.83,8.13-7.21,2-13.95,4.87-19,10.7a14.08,14.08,0,0,0-2.84,14c1.56,5.06,5.73,7.2,10.51,8C1005.39,609.68,1029.89,589,1026.17,564.4Z" transform="translate(-185.23 -384.74)"/><path class="cls-6" d="M1458.54,557c-1.59,32-12.65,55.5-40.19,68.13-40.88,18.75-87.57-7.3-94.23-52-3.24-21.8.36-42.22,14.31-59.73,17.09-21.44,40-28.73,66.37-23.45,25.82,5.15,42.09,21.77,49.85,46.57C1457,544,1457.63,552,1458.54,557Zm-29.08,2.43c-1.18-6-1.7-12.23-3.66-18-5.09-15-15.53-23.93-31.57-25.29-16.59-1.4-29.92,5.85-36.67,20.19-7.21,15.33-7.21,31-.14,46.41,12,26.05,47.19,26,61.45,7.82C1426,581.49,1428.76,571,1429.46,559.46Z" transform="translate(-185.23 -384.74)"/><path class="cls-6" d="M690.25,628.71H662.77v-138h27.36v12.31c2-1.66,3.28-2.76,4.59-3.83,20.21-16.55,52.5-14.09,68.64,5.37,8.94,10.79,12.73,23.75,13,37.34.58,28.34.29,56.7.35,85a11.06,11.06,0,0,1-.3,1.75H749.25v-4.93c0-23.14.27-46.29-.16-69.43a73.1,73.1,0,0,0-3.49-21.28c-3.68-11.2-13-17-25-17-13.11-.05-23,5.66-27,16.83a58.59,58.59,0,0,0-3.28,18.42c-.36,24.23-.15,48.47-.15,72.71Z" transform="translate(-185.23 -384.74)"/><path class="cls-6" d="M1624.29,596.41l26.92-9.55c9.92,15,25.54,20.67,42.76,15.6a23.82,23.82,0,0,0,5-2c4.53-2.53,7.93-6,7.84-11.61s-4-8.43-8.56-9.86c-8.58-2.71-17.44-4.54-26-7.15a233.27,233.27,0,0,1-22.73-7.93c-19.55-8.18-23.8-30.21-18.17-46,6.15-17.32,19.4-25.94,36.83-28.72,12.81-2.05,25.42-.89,37.26,4.91a47.34,47.34,0,0,1,24.81,27.81l-25.82,9c-8.17-13.43-22-18.65-36.44-13.92-5.94,1.95-10.12,5.67-10.63,12.19-.48,6.17,3.14,10.35,8.46,12.29,7.4,2.69,15.14,4.49,22.74,6.65,7.35,2.09,14.9,3.66,22,6.32,12.69,4.74,21.87,13,23.78,27.28,2.16,16.1-2.79,29.5-15.89,39.43-9.39,7.11-20.27,10-31.89,10.36-18.91.53-36.33-3.71-49.87-17.8C1632,608.87,1628.73,602.73,1624.29,596.41Z" transform="translate(-185.23 -384.74)"/><path class="cls-6" d="M1114.1,490.44h28.11v24.88h-27.73c-.15,1.57-.36,2.74-.36,3.92,0,21.5,0,43,0,64.51a45.16,45.16,0,0,0,.88,9.37c1.72,8,7.4,11.85,15.44,10.08,3.78-.83,7.3-2.8,11.56-4.5l14.46,20.23c-12.83,12.7-37.42,15.93-52.56,7.05-10.63-6.24-14.94-16.36-16.52-27.92a108.73,108.73,0,0,1-.91-14.32c-.09-21.1,0-42.19,0-63.28v-5h-18.67V490.53h18.67V469c0-7.66,0-7.66,7.32-9.59l20.32-5.4Z" transform="translate(-185.23 -384.74)"/><path class="cls-6" d="M1531.59,600l14.15,19.34c-10.24,9.39-22.15,13.21-35.59,11.37-17.64-2.42-27.34-12.9-29.78-31.47a107.89,107.89,0,0,1-1-13.91q-.09-83.83-.05-167.67v-3.94h28.07v4.92q0,83.43,0,166.85a31.29,31.29,0,0,0,.41,6.13c2.36,11.57,11.72,15.61,21.89,9.52Z" transform="translate(-185.23 -384.74)"/><path class="cls-6" d="M1554.1,413.49c8.71,0,17-.06,25.36.09.78,0,1.88,1.25,2.2,2.14a11.77,11.77,0,0,1,.11,3.67q0,81,0,161.94a71.57,71.57,0,0,0,.57,10.25c1.57,10.83,11.68,15.58,21.16,10.06.71-.41,1.37-.9,2.54-1.67l14.59,19.88c-4.43,2.69-8.44,5.7-12.89,7.72a41.83,41.83,0,0,1-27.33,2.48c-14.24-3.31-22.87-13.2-25.24-29.38a126.09,126.09,0,0,1-1.3-18q-.15-82-.05-164C1553.85,417.06,1554,415.46,1554.1,413.49Z" transform="translate(-185.23 -384.74)"/></svg>